<?xml version="1.0" standalone="no"?>
<!DOCTYPE svg PUBLIC "-//W3C//DTD SVG 20010904//EN"
 "http://www.w3.org/TR/2001/REC-SVG-20010904/DTD/svg10.dtd">
<svg version="1.0" xmlns="http://www.w3.org/2000/svg"
 width="256.000000pt" height="256.000000pt" viewBox="0 0 256.000000 256.000000"
 preserveAspectRatio="xMidYMid meet">

<g transform="translate(0.000000,256.000000) scale(0.100000,-0.100000)"
fill="#000000" stroke="none">
<path d="M0 1280 l0 -1280 1280 0 1280 0 0 1280 0 1280 -1280 0 -1280 0 0
-1280z m719 865 c135 -14 280 -34 322 -44 154 -38 289 -121 375 -232 l47 -59
413 0 414 0 0 -79 0 -78 -340 -451 c-187 -248 -340 -453 -340 -456 0 -3 162
-6 360 -6 l360 0 0 -85 0 -85 -492 2 -493 3 -3 43 -3 43 -47 -42 c-49 -43
-179 -110 -247 -128 -104 -27 -206 -30 -410 -10 -110 11 -230 22 -267 26 -36
3 -71 9 -76 12 -7 4 -7 34 -2 86 14 122 35 329 95 915 30 294 57 561 61 593 3
31 11 57 17 57 6 0 121 -11 256 -25z"/>
<path d="M637 1813 c-10 -87 -31 -291 -47 -453 -30 -296 -55 -541 -66 -636
l-5 -51 53 -7 c29 -4 116 -9 193 -13 202 -9 286 18 401 129 129 123 186 312
188 613 0 144 -13 208 -65 305 -84 155 -209 225 -449 249 -63 6 -131 14 -151
17 l-36 5 -16 -158z"/>
<path d="M1544 1613 c40 -132 36 -407 -9 -583 -8 -30 -13 -55 -11 -57 3 -3
471 614 489 644 7 11 -34 13 -233 13 -225 0 -241 -1 -236 -17z"/>
</g>
</svg>
