<svg width="36" height="36" viewBox="0 0 36 36" fill="none" xmlns="http://www.w3.org/2000/svg">
<path d="M18 3C20.7848 3 23.4555 4.10625 25.4246 6.07538C27.3938 8.04451 28.5 10.7152 28.5 13.5C28.5 16.2848 27.3938 18.9555 25.4246 20.9246C23.4555 22.8938 20.7848 24 18 24C15.2152 24 12.5445 22.8938 10.5754 20.9246C8.60625 18.9555 7.5 16.2848 7.5 13.5C7.5 10.7152 8.60625 8.04451 10.5754 6.07538C12.5445 4.10625 15.2152 3 18 3ZM18 6C16.0109 6 14.1032 6.79018 12.6967 8.1967C11.2902 9.60322 10.5 11.5109 10.5 13.5C10.5 15.4891 11.2902 17.3968 12.6967 18.8033C14.1032 20.2098 16.0109 21 18 21C18.9849 21 19.9602 20.806 20.8701 20.4291C21.7801 20.0522 22.6069 19.4997 23.3033 18.8033C23.9997 18.1069 24.5522 17.2801 24.9291 16.3701C25.306 15.4602 25.5 14.4849 25.5 13.5C25.5 11.5109 24.7098 9.60322 23.3033 8.1967C21.8968 6.79018 19.9891 6 18 6ZM18 9C19.1935 9 20.3381 9.47411 21.182 10.318C22.0259 11.1619 22.5 12.3065 22.5 13.5C22.5 14.6935 22.0259 15.8381 21.182 16.682C20.3381 17.5259 19.1935 18 18 18C16.8065 18 15.6619 17.5259 14.818 16.682C13.9741 15.8381 13.5 14.6935 13.5 13.5C13.5 12.3065 13.9741 11.1619 14.818 10.318C15.6619 9.47411 16.8065 9 18 9ZM9 33C8.20435 33 7.44129 32.6839 6.87868 32.1213C6.31607 31.5587 6 30.7956 6 30C6 29.43 6.15 28.905 6.435 28.455L9.165 23.715C11.6197 25.836 14.756 27.0021 18 27C21.375 27 24.465 25.755 26.835 23.715L29.565 28.455C29.85 28.905 30 29.43 30 30C30 30.7956 29.6839 31.5587 29.1213 32.1213C28.5587 32.6839 27.7956 33 27 33H9Z" fill="#F93822"/>
</svg>
